<!DOCTYPE svg PUBLIC "-//W3C//DTD SVG 1.1//EN" "http://www.w3.org/Graphics/SVG/1.1/DTD/svg11.dtd">

<svg width="800px" height="800px" viewBox="0 0 512 512" id="Layer_1" version="1.1" xml:space="preserve" xmlns="http://www.w3.org/2000/svg" xmlns:xlink="http://www.w3.org/1999/xlink" fill="#000000">

<g id="SVGRepo_bgCarrier" stroke-width="0"/>

<g id="SVGRepo_tracerCarrier" stroke-linecap="round" stroke-linejoin="round"/>

<g id="SVGRepo_iconCarrier"> <style type="text/css"> .st0{fill:#680d0d;} .st1{fill:#000000;} </style> <g> <path class="st1" d="M476.2,315.4c-9.8-9.8-22.3-17-36.2-20.5v-16.1c0-7.9-3.2-15.1-8.4-20.3c0.1-0.5,0.2-1,0.2-1.5v-9 c0-47-18.3-91.3-51.6-124.5c-6.4-6.4-13.4-12.4-20.7-17.7c-1.3-10.1-7.6-19.4-17.8-24c-26.9-12.2-56.1-18.5-86.1-18.5 c-29.9,0-59.1,6.3-86,18.5c-10.1,4.6-16.4,13.9-17.8,23.9c-45.4,33.1-72.4,85.9-72.4,142.3v9c0,0.7,0.1,1.4,0.3,2 c-4.9,5.2-7.9,12.2-7.9,19.8v16.1c-13.9,3.5-26.3,10.7-36.2,20.5C21.7,329.6,13,349.1,13,370.7c0,43.1,35,78.1,78.1,78.1h9.6V322.5 h14v98.9c17.5-5.8,30.2-22.4,30.2-41.9v-55.2c0-4.9-3.9-8.8-8.8-8.8h-6.3v0v-36.7c0-7.9-3.2-15-8.3-20.2c0.1-0.5,0.2-1.1,0.2-1.6 v-9c0-43,20.6-83.3,55.3-108.5c5.9,1,12.2,0.3,18-2.3c18.9-8.5,39.6-13,60.7-13c21.2,0,41.8,4.5,60.8,13c5.8,2.6,12.1,3.3,18,2.3 c5.7,4.1,11,8.7,16,13.7c25.3,25.3,39.3,59,39.3,94.8v9c0,0.7,0.1,1.4,0.3,2.1c-4.9,5.2-7.9,12.1-7.9,19.8v36.7v0H376 c-4.8,0-8.8,3.9-8.8,8.8v55.2c0,12.2,4.9,23.3,12.9,31.2c4.8,4.8,10.7,8.5,17.2,10.7v-98.9h14v126.2h9.6c43.1,0,78.1-35,78.1-78.1 C499,349.1,490.3,329.6,476.2,315.4z M115.7,278.8v29.7H86v-29.7c0-8.2,6.7-14.9,14.9-14.9S115.7,270.6,115.7,278.8z M107.6,247.9 v2.8c-2.2-0.5-4.4-0.8-6.8-0.8c-2.5,0-4.9,0.3-7.2,0.9v-2.9c0-49.4,22.4-95.7,60.6-126.4c0.8,1.7,1.7,3.4,2.8,5v0 c1.6,2.4,3.5,4.4,5.6,6.2C128,160.8,107.6,203,107.6,247.9z M396.3,278.8c0-8.2,6.7-14.9,14.9-14.9s14.9,6.7,14.9,14.9v29.7h-29.7 V278.8z M360.4,143.2c-3.7-3.7-7.5-7.1-11.5-10.4c2.1-1.8,4-3.8,5.6-6.2v0c1.1-1.6,2-3.3,2.8-5c4.6,3.7,8.9,7.6,13,11.7 c30.6,30.6,47.5,71.3,47.5,114.6v2.8c-2.1-0.5-4.4-0.8-6.7-0.8c-2.5,0-5,0.3-7.3,0.9v-3C403.8,208.4,388.4,171.2,360.4,143.2z"/> <path class="st0" d="M255.8,185.7c-52.8,0-95.7,42.8-95.7,95.7c0,52.8,42.8,95.7,95.7,95.7s95.7-42.8,95.7-95.7 C351.5,228.5,308.6,185.7,255.8,185.7z M201.3,305.9c0,3.9-3.1,7-7,7s-7-3.1-7-7v-38c0-3.9,3.1-7,7-7s7,3.1,7,7V305.9z M242.3,305.9c0,3.9-3.1,7-7,7s-7-3.1-7-7v-65c0-3.9,3.1-7,7-7s7,3.1,7,7V305.9z M283.3,332.9c0,3.9-3.1,7-7,7s-7-3.1-7-7v-65 c0-3.9,3.1-7,7-7s7,3.1,7,7V332.9z M324.3,305.9c0,3.9-3.1,7-7,7s-7-3.1-7-7v-38c0-3.9,3.1-7,7-7s7,3.1,7,7V305.9z"/> </g> </g>

</svg>