<svg width="31" height="31" viewBox="0 0 31 31" fill="none" xmlns="http://www.w3.org/2000/svg">
<path d="M15.05 27.09C18.2432 27.09 21.3056 25.8215 23.5636 23.5636C25.8215 21.3056 27.09 18.2432 27.09 15.05C27.09 11.8568 25.8215 8.79437 23.5636 6.53643C21.3056 4.2785 18.2432 3.01 15.05 3.01C11.8568 3.01 8.79437 4.2785 6.53643 6.53643C4.2785 8.79437 3.01 11.8568 3.01 15.05C3.01 18.2432 4.2785 21.3056 6.53643 23.5636C8.79437 25.8215 11.8568 27.09 15.05 27.09ZM15.05 30.1C6.73789 30.1 0 23.3621 0 15.05C0 6.73789 6.73789 0 15.05 0C23.3621 0 30.1 6.73789 30.1 15.05C30.1 23.3621 23.3621 30.1 15.05 30.1ZM10.3695 16.8109L6.60996 15.6385C5.79726 15.3901 5.79275 14.8303 6.79207 14.4284L21.4402 8.76964C22.2906 8.42348 22.7722 8.86144 22.4967 9.95858L20.003 21.7277C19.8284 22.566 19.3242 22.7661 18.6244 22.3794L14.7851 19.5379L12.9957 21.2656C12.8121 21.4432 12.6631 21.5952 12.3801 21.6329C12.0987 21.672 11.8669 21.5877 11.6969 21.1212L10.3875 16.8003L10.3695 16.8124V16.8109Z" fill="#101010"/>
</svg>
