<svg width="31" height="21" viewBox="0 0 31 21" fill="none" xmlns="http://www.w3.org/2000/svg">
<path d="M0 2.99944C0 1.96133 0.575033 1.40157 1.7251 1.32015L6.15682 1.35068C6.45425 1.35068 6.65254 1.50334 6.75168 1.80867C7.20774 3.3353 7.71833 4.65328 8.28345 5.76263C8.84857 6.87198 9.58719 8.14926 10.4993 9.59447C10.5786 9.77766 10.7075 9.86926 10.886 9.86926C11.0248 9.86926 11.1338 9.79802 11.2131 9.65553L11.3024 9.31967L11.3321 4.03754C11.3321 3.67115 11.2478 3.42689 11.0793 3.30476C10.9108 3.18263 10.5985 3.09104 10.1424 3.02997C9.78547 2.96891 9.60702 2.745 9.60702 2.35826C9.60702 2.27683 9.61693 2.21577 9.63676 2.17506C10.0532 0.851983 11.2429 0.190445 13.2059 0.190445L14.8715 0.159912C15.625 0.159912 16.2496 0.353285 16.7454 0.74003C17.2411 1.12678 17.4889 1.73743 17.4889 2.57198V9.50287C17.6277 9.60465 17.7566 9.65553 17.8756 9.65553C18.173 9.65553 18.4308 9.47234 18.6489 9.10595C20.8301 5.97127 22.0099 3.8747 22.1883 2.81624C22.1883 2.79589 22.2082 2.745 22.2478 2.66358C22.3866 2.35826 22.6147 2.09364 22.9319 1.86973C23.2492 1.64583 23.5268 1.49317 23.7647 1.41175C23.844 1.37104 23.9333 1.35068 24.0324 1.35068H28.6426L28.94 1.38121C29.3366 1.38121 29.6439 1.57459 29.8621 1.96133C29.9414 2.08346 29.9959 2.21577 30.0256 2.35826C30.0554 2.50074 30.0752 2.64323 30.0851 2.78571C30.095 2.9282 30.1 3.00962 30.1 3.02997V3.2437C29.9612 4.07826 29.6092 4.96879 29.0441 5.9153C28.479 6.86181 27.7602 7.88465 26.8877 8.98382C26.0153 10.083 25.47 10.8056 25.2519 11.1516C25.0734 11.3959 24.9842 11.6198 24.9842 11.8233C24.9842 11.9862 25.0635 12.1694 25.2221 12.3729L29.5646 17.9909C29.8026 18.3166 29.9215 18.6728 29.9215 19.0596C29.9215 19.5277 29.7431 19.9145 29.3862 20.2198C29.0292 20.5251 28.6029 20.6981 28.1072 20.7388L27.6016 20.7694H23.0806C23.0608 20.7694 23.0211 20.7745 22.9617 20.7846C22.9022 20.7948 22.8625 20.7999 22.8427 20.7999C22.4065 20.7999 22 20.6065 21.6232 20.2198C21.4844 20.057 20.5525 18.856 18.8274 16.617C18.7282 16.4745 18.5894 16.3422 18.411 16.22C18.3317 16.5457 18.2276 17.0139 18.0987 17.6245C17.9698 18.2352 17.8756 18.6728 17.8161 18.9374L17.7269 19.4565C17.5286 20.1689 17.1122 20.5964 16.4777 20.7388L16.0613 20.7694H13.1464C11.5007 20.7694 9.85983 19.9959 8.22396 18.4489C6.58809 16.9019 5.11581 14.902 3.80711 12.4493C2.49842 9.99648 1.27895 7.14169 0.148715 3.88488C0.0495718 3.62027 0 3.32512 0 2.99944ZM17.8756 10.9074C17.4592 10.9074 17.0824 10.7903 16.7454 10.5562C16.4083 10.3222 16.2397 10.0016 16.2397 9.59447V2.57198C16.2397 2.16488 16.1406 1.87482 15.9423 1.70181C15.744 1.52879 15.397 1.44228 14.9013 1.44228L13.2059 1.50334C12.3533 1.50334 11.7089 1.65601 11.2726 1.96133C12.1451 2.38879 12.5813 3.08086 12.5813 4.03754V9.41127C12.5417 9.92015 12.3434 10.3425 11.9865 10.6784C11.6295 11.0142 11.233 11.1822 10.7967 11.1822C10.2019 11.1822 9.74582 10.887 9.42856 10.2967C7.88192 7.89482 6.73185 5.61506 5.97836 3.45743L5.71067 2.66358L1.75484 2.63305C1.49707 2.63305 1.35331 2.64831 1.32357 2.67885C1.29382 2.70938 1.27895 2.79589 1.27895 2.93837C1.27895 3.12157 1.29878 3.31494 1.33844 3.51849L1.96304 5.22831C3.62866 9.64536 5.43803 13.1261 7.39116 15.6704C9.34429 18.2148 11.2627 19.487 13.1464 19.487H16.1208C16.2397 19.487 16.329 19.4514 16.3884 19.3801C16.4479 19.3089 16.4975 19.1715 16.5372 18.968L16.5966 18.6626L17.1618 15.9758C17.3204 15.6094 17.4592 15.3651 17.5782 15.243C17.7963 15.0191 18.0541 14.9071 18.3515 14.9071C18.8274 14.9071 19.3132 15.2023 19.8089 15.7926L22.3371 19.0901C22.4957 19.3547 22.6642 19.487 22.8427 19.487H27.7503C28.3452 19.487 28.6426 19.3343 28.6426 19.029C28.6426 18.9272 28.6128 18.8255 28.5534 18.7237L24.2406 13.1973C23.9035 12.7699 23.735 12.3119 23.735 11.8233C23.735 11.3348 23.8936 10.8667 24.2109 10.4188C24.4686 10.0117 24.9693 9.33494 25.7129 8.38843C26.4565 7.44192 27.1059 6.55648 27.6611 5.7321C28.2163 4.90772 28.5831 4.15968 28.7616 3.48796L28.8508 3.09104C28.831 3.05033 28.821 2.98417 28.821 2.89257C28.821 2.80098 28.8111 2.72465 28.7913 2.66358H24.1216C23.8242 2.78571 23.5863 2.96891 23.4078 3.21317L23.2293 3.79328C22.7336 5.19778 21.4348 7.36559 19.333 10.2967C18.9166 10.7038 18.4308 10.9074 17.8756 10.9074Z" fill="#101010"/>
</svg>
