<svg width="31" height="31" viewBox="0 0 31 31" fill="none" xmlns="http://www.w3.org/2000/svg">
<path d="M7.90578 24.8235L8.9954 25.4601C10.8329 26.5317 12.9228 27.0943 15.05 27.09C17.4313 27.09 19.7591 26.3838 21.7391 25.0609C23.719 23.7379 25.2622 21.8575 26.1735 19.6575C27.0848 17.4575 27.3232 15.0366 26.8587 12.7011C26.3941 10.3656 25.2474 8.22025 23.5636 6.53643C21.8797 4.85261 19.7344 3.70591 17.3989 3.24134C15.0634 2.77678 12.6425 3.01521 10.4425 3.92649C8.24248 4.83777 6.36209 6.38096 5.03912 8.36093C3.71615 10.3409 3.01002 12.6687 3.01002 15.05C3.01002 17.2112 3.5774 19.2836 4.64144 21.1061L5.27655 22.1957L4.29378 25.8092L7.90578 24.8235ZM0.00604013 30.1L2.0408 22.6231C0.700052 20.3248 -0.0043504 17.7108 2.02155e-05 15.05C2.02155e-05 6.73788 6.7379 0 15.05 0C23.3621 0 30.1 6.73788 30.1 15.05C30.1 23.3621 23.3621 30.1 15.05 30.1C12.3903 30.1043 9.77748 29.4004 7.47987 28.0607L0.00604013 30.1ZM9.61847 7.98853C9.82014 7.97348 10.0233 7.97348 10.225 7.98251C10.3063 7.98853 10.3875 7.99757 10.4688 8.0066C10.7081 8.03368 10.9715 8.17967 11.0603 8.38134C11.5087 9.39872 11.9452 10.4236 12.3666 11.4515C12.4599 11.6803 12.4042 11.9738 12.2266 12.2597C12.1045 12.4531 11.9724 12.64 11.8308 12.8196C11.6608 13.0378 11.295 13.4381 11.295 13.4381C11.295 13.4381 11.146 13.6157 11.2032 13.837C11.2243 13.9212 11.2935 14.0431 11.3567 14.1455L11.4455 14.2885C11.8308 14.9311 12.3485 15.5828 12.9806 16.1968C13.1612 16.3714 13.3373 16.5505 13.527 16.7175C14.2313 17.3391 15.0289 17.8463 15.8898 18.2225L15.8973 18.2255C16.0252 18.2812 16.09 18.3113 16.2766 18.3911C16.3699 18.4302 16.4662 18.4648 16.564 18.4904C16.6651 18.5162 16.7716 18.5113 16.8699 18.4765C16.9683 18.4417 17.054 18.3784 17.1164 18.2948C18.206 16.9749 18.3053 16.8891 18.3144 16.8891V16.8921C18.3901 16.8215 18.48 16.7679 18.5781 16.735C18.6762 16.702 18.7803 16.6904 18.8832 16.701C18.9735 16.707 19.0653 16.7235 19.1496 16.7612C19.9488 17.1269 21.2566 17.6973 21.2566 17.6973L22.1325 18.0901C22.28 18.1608 22.414 18.3279 22.4185 18.4889C22.4245 18.5897 22.4335 18.7523 22.3989 19.0503C22.3508 19.4401 22.2334 19.9081 22.116 20.1534C22.0356 20.3209 21.9289 20.4743 21.7999 20.608C21.6481 20.7674 21.4818 20.9125 21.3033 21.0414C21.2415 21.0878 21.1788 21.133 21.1152 21.1768C20.928 21.2956 20.7356 21.4061 20.5387 21.5079C20.1513 21.7138 19.7233 21.8319 19.2851 21.8541C19.0067 21.8691 18.7282 21.8902 18.4483 21.8752C18.4363 21.8752 17.5935 21.7442 17.5935 21.7442C15.4537 21.1814 13.4749 20.1271 11.8143 18.665C11.4741 18.3655 11.1596 18.0434 10.8375 17.7229C9.49807 16.3909 8.48671 14.9537 7.87267 13.5962C7.55838 12.9299 7.38861 12.2046 7.37452 11.4681C7.36831 10.5543 7.66701 9.6646 8.22334 8.93969C8.3332 8.79822 8.43704 8.65073 8.61614 8.48067C8.80727 8.30007 8.92767 8.20375 9.05861 8.13753C9.2327 8.05029 9.42261 7.9991 9.61696 7.98703L9.61847 7.98853Z" fill="#101010"/>
</svg>
